<svg width="20" height="20" viewBox="0 0 20 20" fill="none" xmlns="http://www.w3.org/2000/svg">
<circle cx="10" cy="10" r="9.5" stroke="#1F2041" stroke-opacity="0.25"/>
<path d="M9.25463 7.544H11.1266V14H9.25463V7.544ZM10.1906 6.644C9.84663 6.644 9.56663 6.544 9.35063 6.344C9.13463 6.144 9.02663 5.896 9.02663 5.6C9.02663 5.304 9.13463 5.056 9.35063 4.856C9.56663 4.656 9.84663 4.556 10.1906 4.556C10.5346 4.556 10.8146 4.652 11.0306 4.844C11.2466 5.036 11.3546 5.276 11.3546 5.564C11.3546 5.876 11.2466 6.136 11.0306 6.344C10.8146 6.544 10.5346 6.644 10.1906 6.644Z" fill="#1F2041" fill-opacity="0.25"/>
</svg>
